<?xml version="1.0" standalone="no"?>
<!DOCTYPE svg PUBLIC "-//W3C//DTD SVG 20010904//EN"
 "http://www.w3.org/TR/2001/REC-SVG-20010904/DTD/svg10.dtd">
<svg version="1.0" xmlns="http://www.w3.org/2000/svg"
 width="500.000000pt" height="500.000000pt" viewBox="0 0 500.000000 500.000000"
 preserveAspectRatio="xMidYMid meet">
<metadata>
Created by potrace 1.11, written by Peter Selinger 2001-2013
</metadata>
<g transform="translate(0.000000,500.000000) scale(0.100000,-0.100000)"
fill="#000000" stroke="none">
<path d="M3009 4405 c-2 -2 -33 -6 -69 -10 -36 -3 -78 -8 -95 -10 -16 -2 -57
-6 -90 -10 -33 -4 -78 -9 -100 -11 -22 -3 -60 -7 -85 -10 -25 -2 -63 -6 -85
-9 -22 -3 -62 -7 -90 -10 -27 -3 -72 -8 -100 -11 -27 -4 -61 -8 -75 -9 -14 -1
-54 -6 -90 -10 -36 -4 -78 -9 -95 -10 -28 -3 -94 -10 -175 -20 -49 -6 -104
-12 -180 -20 -36 -3 -76 -8 -90 -10 -14 -2 -53 -6 -87 -10 l-63 -7 -78 81
c-44 45 -86 81 -95 81 -21 0 -89 -79 -123 -145 -20 -38 -35 -55 -49 -56 -11 0
-29 -2 -40 -4 -11 -2 -49 -7 -85 -10 -36 -3 -76 -8 -90 -10 -14 -3 -50 -7 -80
-10 -55 -5 -134 -14 -180 -20 -14 -2 -54 -7 -90 -10 -36 -4 -72 -8 -80 -10 -8
-2 -53 -6 -100 -10 -47 -4 -87 -8 -90 -10 -3 -1 -36 -6 -75 -9 -106 -10 -118
-14 -142 -52 l-23 -35 25 -106 c14 -58 27 -117 30 -132 3 -14 7 -35 9 -46 10
-44 129 -571 166 -733 22 -95 42 -183 44 -195 2 -12 16 -74 30 -137 15 -63 36
-155 47 -205 11 -49 29 -126 39 -170 11 -44 21 -91 23 -105 3 -14 12 -55 21
-91 8 -37 17 -78 20 -90 35 -177 90 -395 102 -402 9 -5 14 -25 14 -60 0 -29 4
-57 8 -62 4 -6 106 -82 227 -170 121 -88 226 -165 233 -172 7 -7 17 -13 21
-13 4 0 16 -8 27 -18 10 -9 30 -25 44 -34 46 -32 111 -78 123 -88 13 -11 235
-172 415 -301 l112 -80 193 41 c105 22 305 65 442 95 451 98 466 101 517 110
15 3 121 25 235 50 114 25 217 47 228 49 11 3 74 16 140 30 66 15 134 29 150
32 17 3 55 11 85 19 30 7 69 16 85 19 43 7 79 15 170 36 44 10 96 21 116 24
20 3 42 8 50 10 8 3 25 8 39 10 14 3 120 25 236 50 116 25 226 48 244 51 18 3
36 8 39 10 4 2 24 6 46 9 22 4 72 14 110 24 l70 17 3 71 c2 49 -1 74 -10 81
-7 6 -125 68 -263 139 -137 70 -317 163 -400 206 -82 42 -207 105 -277 140
l-127 63 -1 363 c0 352 -4 402 -31 402 -42 0 -201 -150 -256 -242 -38 -62 -83
-185 -83 -225 0 -36 -17 -18 -25 26 -3 19 -7 37 -9 40 -2 3 -7 22 -10 41 -3
19 -12 59 -19 87 -8 29 -12 55 -9 58 3 3 22 5 42 5 21 0 43 7 50 15 16 20 5
449 -14 562 -28 156 -96 326 -187 469 l-39 61 35 59 c20 32 45 88 56 124 27
84 29 232 4 316 -31 109 -125 254 -164 254 -9 0 -53 -36 -98 -81 l-81 -80 -18
81 c-11 53 -23 84 -34 90 -10 5 -19 8 -21 5z"/>
</g>
</svg>
